{
    "asset" : {
        "generator" : "Khronos glTF Blender I/O v0.9.36",
        "version" : "2.0"
    },
    "scene" : 0,
    "scenes" : [
        {
            "name" : "Scene",
            "nodes" : [
                0
            ]
        }
    ],
    "nodes" : [
        {
            "mesh" : 0,
            "name" : "DR20_Sealed"
        }
    ],
    "animations" : [
        {
            "channels" : [
                {
                    "sampler" : 0,
                    "target" : {
                        "node" : 0,
                        "path" : "rotation"
                    }
                }
            ],
            "name" : "DR20_SealedAction",
            "samplers" : [
                {
                    "input" : 4,
                    "interpolation" : "CUBICSPLINE",
                    "output" : 5
                }
            ]
        }
    ],
    "materials" : [
        {
            "doubleSided" : true,
            "name" : "Amphora_UV",
            "normalTexture" : {
                "index" : 0,
                "texCoord" : 0
            },
            "pbrMetallicRoughness" : {
                "baseColorTexture" : {
                    "index" : 1,
                    "texCoord" : 0
                },
                "metallicRoughnessTexture" : {
                    "index" : 2,
                    "texCoord" : 0
                }
            }
        }
    ],
    "meshes" : [
        {
            "name" : "Mesh.000",
            "primitives" : [
                {
                    "attributes" : {
                        "POSITION" : 0,
                        "NORMAL" : 1,
                        "TEXCOORD_0" : 2
                    },
                    "indices" : 3,
                    "material" : 0
                }
            ]
        }
    ],
    "textures" : [
        {
            "source" : 0
        },
        {
            "source" : 1
        },
        {
            "source" : 2
        }
    ],
    "images" : [
        {
            "mimeType" : "image/png",
            "name" : "Amphora_01_normal",
            "uri" : "Amphora_01_normal.png"
        },
        {
            "mimeType" : "image/png",
            "name" : "Amphora_03_basecolor",
            "uri" : "Amphora_03_basecolor.png"
        },
        {
            "mimeType" : "image/png",
            "name" : "amphora_met-amphora_rgh",
            "uri" : "amphora_met-amphora_rgh.png"
        }
    ],
    "accessors" : [
        {
            "bufferView" : 0,
            "componentType" : 5126,
            "count" : 1023,
            "max" : [
                0.269706666469574,
                0.8245432376861572,
                0.269706666469574
            ],
            "min" : [
                -0.269706666469574,
                -0.003233902156352997,
                -0.269706666469574
            ],
            "type" : "VEC3"
        },
        {
            "bufferView" : 1,
            "componentType" : 5126,
            "count" : 1023,
            "type" : "VEC3"
        },
        {
            "bufferView" : 2,
            "componentType" : 5126,
            "count" : 1023,
            "type" : "VEC2"
        },
        {
            "bufferView" : 3,
            "componentType" : 5123,
            "count" : 4698,
            "type" : "SCALAR"
        },
        {
            "bufferView" : 4,
            "componentType" : 5126,
            "count" : 2,
            "max" : [
                12.5
            ],
            "min" : [
                0.041666666666666664
            ],
            "type" : "SCALAR"
        },
        {
            "bufferView" : 5,
            "componentType" : 5126,
            "count" : 6,
            "type" : "VEC4"
        }
    ],
    "bufferViews" : [
        {
            "buffer" : 0,
            "byteLength" : 12276,
            "byteOffset" : 0
        },
        {
            "buffer" : 0,
            "byteLength" : 12276,
            "byteOffset" : 12276
        },
        {
            "buffer" : 0,
            "byteLength" : 8184,
            "byteOffset" : 24552
        },
        {
            "buffer" : 0,
            "byteLength" : 9396,
            "byteOffset" : 32736
        },
        {
            "buffer" : 0,
            "byteLength" : 8,
            "byteOffset" : 42132
        },
        {
            "buffer" : 0,
            "byteLength" : 96,
            "byteOffset" : 42140
        }
    ],
    "buffers" : [
        {
            "byteLength" : 42236,
            "uri" : "anfora.bin"
        }
    ]
}
