{
    "asset" : {
        "generator" : "Khronos glTF Blender I/O v0.9.47",
        "version" : "2.0"
    },
    "scene" : 0,
    "scenes" : [
        {
            "name" : "Scene",
            "nodes" : [
                0
            ]
        }
    ],
    "nodes" : [
        {
            "mesh" : 0,
            "name" : "lucerna_uv",
            "rotation" : [
                0.7071068286895752,
                0,
                0,
                0.7071067094802856
            ]
        }
    ],
    "materials" : [
        {
            "doubleSided" : true,
            "emissiveFactor" : [
                1,
                1,
                1
            ],
            "emissiveTexture" : {
                "index" : 0,
                "texCoord" : 0
            },
            "name" : "lucerna",
            "pbrMetallicRoughness" : {
                "baseColorFactor" : [
                    1,
                    1,
                    1,
                    1
                ],
                "metallicFactor" : 1,
                "roughnessFactor" : 1
            }
        }
    ],
    "meshes" : [
        {
            "name" : "TexturedMesh.002",
            "primitives" : [
                {
                    "attributes" : {
                        "POSITION" : 0,
                        "NORMAL" : 1,
                        "TEXCOORD_0" : 2
                    },
                    "indices" : 3,
                    "material" : 0
                }
            ]
        }
    ],
    "textures" : [
        {
            "source" : 0
        }
    ],
    "images" : [
        {
            "mimeType" : "image/jpeg",
            "name" : "lucerna",
            "uri" : "lucerna.jpg"
        }
    ],
    "accessors" : [
        {
            "bufferView" : 0,
            "componentType" : 5126,
            "count" : 41382,
            "max" : [
                1.03511643409729,
                0.6924872994422913,
                0.32488635182380676
            ],
            "min" : [
                -1.1218572854995728,
                -0.7002898454666138,
                -0.3323712646961212
            ],
            "type" : "VEC3"
        },
        {
            "bufferView" : 1,
            "componentType" : 5126,
            "count" : 41382,
            "type" : "VEC3"
        },
        {
            "bufferView" : 2,
            "componentType" : 5126,
            "count" : 41382,
            "type" : "VEC2"
        },
        {
            "bufferView" : 3,
            "componentType" : 5123,
            "count" : 41382,
            "type" : "SCALAR"
        }
    ],
    "bufferViews" : [
        {
            "buffer" : 0,
            "byteLength" : 496584,
            "byteOffset" : 0
        },
        {
            "buffer" : 0,
            "byteLength" : 496584,
            "byteOffset" : 496584
        },
        {
            "buffer" : 0,
            "byteLength" : 331056,
            "byteOffset" : 993168
        },
        {
            "buffer" : 0,
            "byteLength" : 82764,
            "byteOffset" : 1324224
        }
    ],
    "buffers" : [
        {
            "byteLength" : 1406988,
            "uri" : "lucerna_export.bin"
        }
    ]
}
