{
    "asset" : {
        "generator" : "Khronos glTF Blender I/O v0.9.36",
        "version" : "2.0"
    },
    "scene" : 0,
    "scenes" : [
        {
            "name" : "Scene",
            "nodes" : [
                0
            ]
        }
    ],
    "nodes" : [
        {
            "mesh" : 0,
            "name" : "lucerna_uv"
        }
    ],
    "materials" : [
        {
            "doubleSided" : true,
            "emissiveFactor" : [
                1,
                1,
                1
            ],
            "emissiveTexture" : {
                "index" : 0,
                "texCoord" : 0
            },
            "name" : "Material.002",
            "pbrMetallicRoughness" : {}
        }
    ],
    "meshes" : [
        {
            "name" : "TexturedMesh.002",
            "primitives" : [
                {
                    "attributes" : {
                        "POSITION" : 0,
                        "NORMAL" : 1,
                        "TEXCOORD_0" : 2
                    },
                    "indices" : 3,
                    "material" : 0
                }
            ]
        }
    ],
    "textures" : [
        {
            "source" : 0
        }
    ],
    "images" : [
        {
            "mimeType" : "image/png",
            "name" : "lucerna_vertexcolors_bake_4k",
            "uri" : "lucerna_vertexcolors_bake_4k.png"
        }
    ],
    "accessors" : [
        {
            "bufferView" : 0,
            "componentType" : 5126,
            "count" : 41382,
            "max" : [
                0.3450388014316559,
                0.1107904240489006,
                0.23082910478115082
            ],
            "min" : [
                -0.3739524185657501,
                -0.10829544812440872,
                -0.2334299385547638
            ],
            "type" : "VEC3"
        },
        {
            "bufferView" : 1,
            "componentType" : 5126,
            "count" : 41382,
            "type" : "VEC3"
        },
        {
            "bufferView" : 2,
            "componentType" : 5126,
            "count" : 41382,
            "type" : "VEC2"
        },
        {
            "bufferView" : 3,
            "componentType" : 5123,
            "count" : 41382,
            "type" : "SCALAR"
        }
    ],
    "bufferViews" : [
        {
            "buffer" : 0,
            "byteLength" : 496584,
            "byteOffset" : 0
        },
        {
            "buffer" : 0,
            "byteLength" : 496584,
            "byteOffset" : 496584
        },
        {
            "buffer" : 0,
            "byteLength" : 331056,
            "byteOffset" : 993168
        },
        {
            "buffer" : 0,
            "byteLength" : 82764,
            "byteOffset" : 1324224
        }
    ],
    "buffers" : [
        {
            "byteLength" : 1406988,
            "uri" : "lucerna.bin"
        }
    ]
}
